<svg xmlns="http://www.w3.org/2000/svg" version="1.1" xmlns:xlink="http://www.w3.org/1999/xlink" xmlns:svgjs="http://svgjs.dev/svgjs" width="2000" height="1252" viewBox="0 0 2000 1252"><g transform="matrix(1,0,0,1,-1.2121212121212466,-2.01935483870966)"><svg viewBox="0 0 396 248" data-background-color="#c8c8c8" preserveAspectRatio="xMidYMid meet" height="1252" width="2000" xmlns="http://www.w3.org/2000/svg" xmlns:xlink="http://www.w3.org/1999/xlink"><g id="tight-bounds" transform="matrix(1,0,0,1,0.2400000000000091,0.4000000000000057)"><svg viewBox="0 0 395.52 247.2" height="247.2" width="395.52"><g><svg></svg></g><g><svg viewBox="0 0 395.52 247.2" height="247.2" width="395.52"><g transform="matrix(1,0,0,1,80.8507438016529,37.08)"><svg viewBox="0 0 233.8185123966942 173.04" height="173.04" width="233.8185123966942"><g><svg viewBox="0 0 233.8185123966942 173.04" height="173.04" width="233.8185123966942"><g><svg viewBox="0 0 233.8185123966942 173.04" height="173.04" width="233.8185123966942"><g><svg viewBox="0 0 233.8185123966942 173.04" height="173.04" width="233.8185123966942"><g id="textblocktransform"><svg viewBox="0 0 233.8185123966942 173.04" height="173.04" width="233.8185123966942" id="textblock"><g><svg viewBox="0 0 233.8185123966942 173.04" height="173.04" width="233.8185123966942"><g transform="matrix(1,0,0,1,0,0)"><svg width="233.8185123966942" viewBox="0.25 -35.7 49.05 36.300000000000004" height="173.04" data-palette-color="#6b7280"><path d="M12.2 0.35Q7.25 0.35 4.58-2.13 1.9-4.6 1.07-7.48 0.25-10.35 0.25-12.35L0.25-12.35 0.3-16.65Q0.35-17.6 0.35-18.8L0.35-18.8Q0.35-19.45 0.5-19.58 0.65-19.7 1.1-19.65L1.1-19.65Q1.65-19.65 4.2-20L4.2-20Q5.1-20.05 5.1-19.1L5.1-19.1Q5.1-18.8 5-18.25 4.9-17.7 4.9-17.25L4.9-17.25Q4.9-12.4 5.63-9.75 6.35-7.1 7.58-6.13 8.8-5.15 10.6-5.15L10.6-5.15Q12.6-5.15 13.88-6.23 15.15-7.3 15.7-8.8 16.25-10.3 16.25-11.65L16.25-11.65 16.4-25.45Q16.3-26.95 16.3-28.75L16.3-28.75 16.35-33.6Q16.25-34.85 16.6-35.18 16.95-35.5 17.6-35.5L17.6-35.5Q17.9-35.55 18.55-35.63 19.2-35.7 19.75-35.7L19.75-35.7Q20.3-35.7 20.55-35.65L20.55-35.65Q21.4-35.6 21.6-35.33 21.8-35.05 21.75-34L21.75-34 21.65-18.7Q21.6-18.35 21.63-17.93 21.65-17.5 21.65-17.15L21.65-17.15 21.65-15.55Q21.65 0.35 12.2 0.35L12.2 0.35ZM39.2 0.6Q35.95 0.6 32.97-1.83 30-4.25 28.2-8.45 26.4-12.65 26.4-17.7L26.4-17.7Q26.4-22.7 28.12-26.7 29.85-30.7 32.55-32.95 35.25-35.2 38.1-35.2L38.1-35.2Q41.65-35.2 43.82-33.73 46-32.25 46.95-30.9L46.95-30.9Q47.15-30.6 47.32-30.35 47.5-30.1 47.5-29.85L47.5-29.85Q47.5-29.55 46.95-29.05L46.95-29.05Q44.65-27.25 43.65-25.9L43.65-25.9Q43.15-25.25 42.8-24.93 42.45-24.6 42.1-24.6L42.1-24.6Q41.75-24.6 41.3-25.1L41.3-25.1Q40.25-26.25 39.67-26.73 39.1-27.2 38.3-27.2L38.3-27.2Q37.05-27.2 35.82-26.15 34.6-25.1 33.75-22.68 32.9-20.25 32.9-16.45L32.9-16.45Q32.9-12.75 33.97-10.58 35.05-8.4 36.42-7.55 37.8-6.7 38.8-6.7L38.8-6.7Q39.7-6.7 40.65-7.33 41.6-7.95 42.3-8.65L42.3-8.65Q42.4-8.75 42.62-9 42.85-9.25 43.05-9.25L43.05-9.25Q43.3-9.25 43.65-9.05L43.65-9.05 47.9-6.7Q48.1-6.6 48.52-6.43 48.95-6.25 49.12-6.1 49.3-5.95 49.3-5.7L49.3-5.7Q49.3-5.45 49.15-5.15L49.15-5.15Q48.05-3.3 45.7-1.35 43.35 0.6 39.2 0.6L39.2 0.6Z" opacity="1" transform="matrix(1,0,0,1,0,0)" fill="#ffffff" class="wordmark-text-0" data-fill-palette-color="primary" id="text-0"></path></svg></g></svg></g></svg></g></svg></g><g></g></svg></g></svg></g></svg></g><g><path d="M0 247.2v-247.2h395.52v247.2zM379.915 231.595v-215.99h-364.31v215.99z" fill="#ffffff" fill-rule="nonzero" stroke="none" stroke-width="1" stroke-linecap="butt" stroke-linejoin="miter" stroke-miterlimit="10" stroke-dasharray="" stroke-dashoffset="0" font-family="none" font-weight="none" font-size="none" text-anchor="none" style="mix-blend-mode: normal" data-fill-palette-color="tertiary"></path></g></svg></g><defs></defs></svg><rect width="395.52" height="247.2" fill="none" stroke="none" visibility="hidden"></rect></g></svg></g></svg>