<?xml version="1.0" standalone="no"?>
<!DOCTYPE svg PUBLIC "-//W3C//DTD SVG 20010904//EN"
 "http://www.w3.org/TR/2001/REC-SVG-20010904/DTD/svg10.dtd">
<svg version="1.0" xmlns="http://www.w3.org/2000/svg"
 width="320.000000pt" height="320.000000pt" viewBox="0 0 320.000000 320.000000"
 preserveAspectRatio="xMidYMid meet">

<g transform="translate(0.000000,320.000000) scale(0.100000,-0.100000)"
fill="#000000" stroke="none">
<path d="M1757 2725 c-20 -7 -43 -17 -50 -23 -7 -6 -34 -20 -60 -31 l-48 -21
-8 22 c-7 18 -9 16 -13 -19 -6 -45 -55 -107 -92 -119 -37 -12 -114 -95 -137
-148 -27 -60 -30 -141 -7 -203 15 -42 15 -43 -6 -43 -13 0 -59 11 -103 24 -44
13 -106 27 -138 31 -37 5 -66 15 -83 30 -24 21 -27 30 -27 87 0 37 -5 69 -12
76 -7 7 -14 21 -14 30 -3 33 -18 -74 -18 -128 -1 -54 14 -96 68 -189 19 -33
19 -35 3 -60 -39 -58 -61 -119 -67 -186 -12 -147 -17 -173 -29 -178 -7 -3 -13
0 -14 6 0 7 -8 46 -17 87 -22 104 -52 301 -61 388 -5 54 -10 70 -18 62 -7 -7
-11 -65 -11 -163 0 -160 26 -363 67 -517 22 -83 35 -220 20 -220 -9 0 12 -167
22 -177 3 -3 17 -2 31 1 26 7 27 9 20 58 -4 29 -9 77 -11 107 -1 31 -6 83 -11
116 -15 116 -7 219 34 414 31 151 83 223 169 234 27 4 81 11 119 17 51 8 112
8 225 -1 131 -10 176 -10 289 3 112 13 143 14 195 3 182 -38 216 -66 262 -215
l14 -45 -6 55 c-5 53 -45 140 -64 140 -21 0 -21 41 0 71 21 28 31 74 46 206 6
46 0 77 -31 178 -2 6 -4 -9 -4 -32 -1 -23 -4 -48 -7 -57 -5 -13 -9 -12 -25 7
-23 28 -23 23 0 -38 43 -112 37 -168 -23 -224 -27 -25 -43 -28 -160 -23 l-58
2 31 35 c17 20 34 48 38 63 11 36 10 381 0 407 -8 18 -10 17 -22 -12 -12 -27
-11 -44 1 -115 28 -153 5 -307 -50 -343 -42 -27 -153 -37 -286 -25 -174 16
-223 31 -244 74 -20 42 -21 125 -2 170 22 53 82 103 231 191 142 84 210 140
197 162 -5 8 -17 8 -45 -2z"/>
<path d="M1890 2681 c0 -6 5 -13 10 -16 6 -4 8 -10 5 -15 -3 -4 3 -14 12 -21
15 -12 16 -12 8 1 -10 16 -12 21 -14 45 -1 16 -21 21 -21 6z"/>
<path d="M2363 2103 c3 -13 1 -23 -4 -23 -6 0 -9 -6 -8 -12 4 -20 -11 -145
-27 -238 -17 -93 -40 -153 -56 -144 -7 4 -8 -5 -3 -25 13 -61 13 -182 0 -259
-7 -42 -14 -102 -15 -132 -1 -30 -3 -71 -3 -90 -2 -31 1 -35 25 -38 28 -3 27
-5 52 165 2 12 -1 20 -5 17 -17 -10 -9 123 10 182 27 83 51 251 58 418 5 123
4 146 -11 171 -14 24 -16 26 -13 8z"/>
<path d="M2241 1804 c0 -11 3 -14 6 -6 3 7 2 16 -1 19 -3 4 -6 -2 -5 -13z"/>
<path d="M1126 1700 c-35 -11 -66 -38 -66 -58 0 -11 6 -12 28 -6 29 10 155 11
262 4 60 -5 65 -3 65 15 0 16 -11 23 -50 32 -68 17 -203 25 -239 13z"/>
<path d="M1871 1695 c-81 -15 -97 -25 -87 -51 6 -14 14 -15 69 -8 80 11 224
11 260 0 25 -7 28 -6 25 9 -10 56 -125 77 -267 50z"/>
<path d="M1165 1534 c-44 -23 -76 -55 -92 -93 -21 -50 -9 -48 21 3 37 63 96
91 178 83 70 -6 118 -39 155 -103 26 -44 30 -40 9 10 -17 41 -60 83 -103 102
-43 19 -131 18 -168 -2z"/>
<path d="M1865 1536 c-40 -17 -84 -63 -101 -103 -19 -44 -17 -55 3 -18 39 75
104 115 184 115 70 0 130 -35 156 -90 19 -42 39 -55 28 -17 -25 79 -95 127
-186 127 -30 -1 -67 -7 -84 -14z"/>
<path d="M1208 1504 c-53 -28 -72 -98 -43 -154 26 -50 106 -77 145 -49 13 9
12 10 -2 5 -28 -8 -30 10 -3 28 31 20 49 21 41 1 -10 -26 3 -16 19 15 53 103
-55 210 -157 154z m32 -40 c11 -12 10 -18 -3 -32 -16 -15 -18 -15 -34 0 -13
14 -14 20 -3 32 7 9 16 16 20 16 4 0 13 -7 20 -16z"/>
<path d="M1878 1504 c-33 -17 -58 -62 -58 -101 0 -38 34 -91 66 -103 33 -13
81 -13 89 0 3 6 -1 7 -10 4 -23 -9 -8 22 20 40 25 16 37 12 28 -10 -10 -26 6
-14 22 16 53 103 -55 210 -157 154z m30 -51 c4 -25 -22 -37 -38 -17 -10 11
-10 17 0 29 17 20 34 14 38 -12z"/>
<path d="M750 1475 c0 -2 25 -29 55 -58 30 -29 55 -52 55 -50 0 2 -7 17 -15
32 -21 41 -95 100 -95 76z"/>
<path d="M2400 1454 c-32 -27 -76 -102 -66 -112 3 -3 6 -1 6 5 0 16 71 93 86
93 8 0 14 9 14 20 0 26 -2 25 -40 -6z"/>
<path d="M835 1240 c3 -5 8 -10 11 -10 2 0 4 5 4 10 0 6 -5 10 -11 10 -5 0 -7
-4 -4 -10z"/>
<path d="M652 463 c-32 -48 -60 -115 -81 -198 -19 -76 -51 -237 -51 -256 0 -5
452 -9 1070 -9 1012 0 1070 1 1070 18 0 24 -26 169 -45 248 -18 78 -55 162
-82 187 -20 17 -20 16 -27 -70 -3 -49 -9 -140 -12 -203 -6 -101 -9 -117 -28
-132 -31 -25 -88 -31 -258 -24 -84 3 -444 6 -800 6 l-648 0 -29 27 -30 28 -7
203 c-4 111 -10 202 -15 202 -4 0 -16 -12 -27 -27z"/>
</g>
</svg>
